# xmcd
#
# Track frame offsets: 
#        750
#        16494
#        32687
#        52795
#        68899
#        100850
#
# Disc length: 1352 seconds
#
# Revision: 0
# Processed by: cddbd v1.5.2PL0 Copyright (c) Steve Scherf et al.
# Submitted via: ExactAudioCopy v0.99pb5
#
DISCID=41053e06
DTITLE=Marc Sway - Natural High
DYEAR=2003
DGENRE=R&B
TTITLE0=Natural High (Original Version)
TTITLE1=Natural High (Video Version)
TTITLE2=Natural High (Remix)
TTITLE3=Natural High (Instrumental)
TTITLE4=Stop Your Crying
TTITLE5=Nix
EXTD=
EXTT0=
EXTT1=
EXTT2=
EXTT3=
EXTT4=
EXTT5=
PLAYORDER=
